<?xml version="1.0" encoding="UTF-8" standalone="no"?>
<svg
   xmlns:dc="http://purl.org/dc/elements/1.1/"
   xmlns:cc="http://creativecommons.org/ns#"
   xmlns:rdf="http://www.w3.org/1999/02/22-rdf-syntax-ns#"
   xmlns:svg="http://www.w3.org/2000/svg"
   xmlns="http://www.w3.org/2000/svg"
   xmlns:sodipodi="http://sodipodi.sourceforge.net/DTD/sodipodi-0.dtd"
   xmlns:inkscape="http://www.inkscape.org/namespaces/inkscape"
   version="1.1"
   id="svg10"
   xml:space="preserve"
   width="446.38132"
   height="94.15847"
   viewBox="0 0 446.3813 94.15847"
   sodipodi:docname="Check Point Logo.svg"
   inkscape:version="1.0.1 (c497b03c, 2020-09-10)"><metadata
     id="metadata16"><rdf:RDF><cc:Work
         rdf:about=""><dc:format>image/svg+xml</dc:format><dc:type
           rdf:resource="http://purl.org/dc/dcmitype/StillImage" /><dc:title></dc:title></cc:Work></rdf:RDF></metadata><defs
     id="defs14"><clipPath
       clipPathUnits="userSpaceOnUse"
       id="clipPath28"><path
         d="M 0,0 H 800 V 600 H 0 Z"
         id="path26" /></clipPath><clipPath
       clipPathUnits="userSpaceOnUse"
       id="clipPath54"><path
         d="m 583.035,299.05 h 116.996 v 25.168 H 583.035 Z"
         id="path52" /></clipPath><clipPath
       clipPathUnits="userSpaceOnUse"
       id="clipPath94"><path
         d="M 0,0 H 800 V 600 H 0 Z"
         id="path92" /></clipPath><clipPath
       clipPathUnits="userSpaceOnUse"
       id="clipPath104"><path
         d="m 391.433,298.913 h 116.996 v 25.168 H 391.433 Z"
         id="path102" /></clipPath><clipPath
       clipPathUnits="userSpaceOnUse"
       id="clipPath144"><path
         d="M 0,0 H 800 V 600 H 0 Z"
         id="path142" /></clipPath><clipPath
       clipPathUnits="userSpaceOnUse"
       id="clipPath294"><path
         d="m 355.36,391.702 h 406.8 v 133.416 h -406.8 z"
         id="path292" /></clipPath><clipPath
       clipPathUnits="userSpaceOnUse"
       id="clipPath334"><path
         d="M 0,0 H 800 V 600 H 0 Z"
         id="path332" /></clipPath></defs><sodipodi:namedview
     pagecolor="#ffffff"
     bordercolor="#666666"
     borderopacity="1"
     objecttolerance="10"
     gridtolerance="10"
     guidetolerance="10"
     inkscape:pageopacity="0"
     inkscape:pageshadow="2"
     inkscape:window-width="1280"
     inkscape:window-height="755"
     id="namedview12"
     showgrid="false"
     inkscape:zoom="2.5202668"
     inkscape:cx="223.19066"
     inkscape:cy="47.079235"
     inkscape:window-x="0"
     inkscape:window-y="23"
     inkscape:window-maximized="1"
     inkscape:current-layer="g18" /><g
     id="g18"
     inkscape:groupmode="layer"
     inkscape:label="check-point-brand-guidelines-2024 (dragged)"
     transform="matrix(1.3333333,0,0,-1.3333333,-518.40866,664.30846)"><g
       id="g20" /><g
       id="g288"><g
         id="g290"
         clip-path="url(#clipPath294)"><path
           d="m 465.2197,450.4904 v 0.067 c 0.018,6.828 5.176,12.407 12.556,12.387 4.529,-0.011 7.234,-1.528 9.457,-3.727 l -3.37,-3.87 c -1.848,1.686 -3.734,2.722 -6.134,2.727 -4.048,0.012 -6.974,-3.344 -6.985,-7.462 v -0.069 c -0.01,-4.114 2.829,-7.555 6.947,-7.565 2.741,-0.007 4.426,1.088 6.316,2.8 l 3.354,-3.407 c -2.479,-2.638 -5.224,-4.274 -9.859,-4.261 -7.069,0.018 -12.3,5.484 -12.282,12.38"
           style="fill:#231f20;fill-opacity:1;fill-rule:nonzero;stroke:none"
           id="path296" /><path
           d="m 491.6263,462.4983 5.284,-0.014 -0.024,-9.503 9.747,-0.025 0.024,9.502 5.284,-0.013 -0.062,-24.017 -5.285,0.015 0.026,9.639 -9.747,0.025 -0.025,-9.639 -5.284,0.014 z"
           style="fill:#231f20;fill-opacity:1;fill-rule:nonzero;stroke:none"
           id="path298" /><path
           d="m 518.3401,462.4286 18.114,-0.047 -0.013,-4.702 -12.868,0.034 -0.013,-4.871 11.322,-0.03 -0.013,-4.698 -11.322,0.028 -0.012,-5.043 13.037,-0.034 -0.013,-4.701 -18.281,0.048 z"
           style="fill:#231f20;fill-opacity:1;fill-rule:nonzero;stroke:none"
           id="path300" /><path
           d="m 540.2289,450.2948 v 0.067 c 0.018,6.828 5.179,12.407 12.552,12.387 4.526,-0.011 7.238,-1.528 9.46,-3.727 l -3.371,-3.87 c -1.848,1.686 -3.736,2.722 -6.137,2.727 -4.047,0.012 -6.97,-3.344 -6.981,-7.462 v -0.069 c -0.012,-4.114 2.825,-7.555 6.941,-7.565 2.746,-0.007 4.427,1.088 6.323,2.8 l 3.351,-3.407 c -2.477,-2.638 -5.224,-4.274 -9.856,-4.261 -7.065,0.018 -12.3,5.484 -12.282,12.38"
           style="fill:#231f20;fill-opacity:1;fill-rule:nonzero;stroke:none"
           id="path302" /><path
           d="m 566.3344,462.3035 5.286,-0.014 -0.027,-10.499 9.766,10.473 6.384,-0.015 -9.809,-10.164 10.195,-13.855 -6.35,0.017 -7.418,10.245 -2.785,-2.878 -0.019,-7.34 -5.285,0.014 z"
           style="fill:#231f20;fill-opacity:1;fill-rule:nonzero;stroke:none"
           id="path304" /><path
           d="m 611.8589,450.0809 c 2.641,-0.007 4.186,1.568 4.192,3.625 v 0.068 c 0.005,2.366 -1.636,3.642 -4.276,3.649 l -4.083,0.01 -0.019,-7.341 z m -9.433,12.135 9.805,-0.026 c 5.728,-0.014 9.186,-3.421 9.173,-8.328 v -0.065 c -0.014,-5.559 -4.34,-8.428 -9.732,-8.414 l -4.012,0.01 -0.018,-7.207 -5.279,0.014 z"
           style="fill:#231f20;fill-opacity:1;fill-rule:nonzero;stroke:none"
           id="path306" /><path
           d="m 644.828,450.0289 v 0.067 c 0.011,4.119 -3.005,7.558 -7.255,7.57 -4.255,0.01 -7.214,-3.346 -7.225,-7.462 v -0.07 c -0.012,-4.114 2.998,-7.554 7.253,-7.566 4.26,-0.011 7.216,3.346 7.227,7.461 m -20.004,0.052 v 0.067 c 0.018,6.828 5.419,12.406 12.83,12.386 7.405,-0.018 12.712,-5.555 12.695,-12.383 v -0.07 c -0.018,-6.825 -5.417,-12.401 -12.829,-12.381 -7.408,0.02 -12.715,5.552 -12.696,12.381"
           style="fill:#231f20;fill-opacity:1;fill-rule:nonzero;stroke:none"
           id="path308" /><path
           d="m 655.5236,462.0777 5.28,-0.014 -0.063,-24.016 -5.279,0.014 z"
           style="fill:#231f20;fill-opacity:1;fill-rule:nonzero;stroke:none"
           id="path310" /><path
           d="m 667.4412,462.0467 4.873,-0.013 11.214,-14.814 0.038,14.784 5.213,-0.012 -0.062,-24.017 -4.491,0.012 -11.595,15.298 -0.039,-15.268 -5.213,0.014 z"
           style="fill:#231f20;fill-opacity:1;fill-rule:nonzero;stroke:none"
           id="path312" /><path
           d="m 700.7526,457.087 -7.306,0.018 0.013,4.873 19.899,-0.051 -0.013,-4.873 -7.3,0.019 -0.05,-19.143 -5.293,0.014 z"
           style="fill:#231f20;fill-opacity:1;fill-rule:nonzero;stroke:none"
           id="path314" /><path
           d="m 434.2939,480.7706 v 0 c 10e-4,-10e-4 0.004,-0.003 0.006,-0.004 -0.002,0.001 -0.005,0.003 -0.006,0.004"
           style="fill:#000000;fill-opacity:1;fill-rule:nonzero;stroke:none"
           id="path316" /><path
           d="M 446.2186,463.4636 Z"
           style="fill:#000000;fill-opacity:1;fill-rule:nonzero;stroke:none"
           id="path318" /><path
           d="m 460.9302,480.4989 c -3.773,-4.691 -10.641,-5.44 -15.329,-1.664 -4.689,3.78 -5.437,10.635 -1.661,15.331 3.774,4.688 10.633,5.433 15.327,1.653 4.694,-3.763 5.433,-10.633 1.663,-15.32"
           style="fill:#231f20;fill-opacity:1;fill-rule:nonzero;stroke:none"
           id="path320" /><path
           d="m 446.2186,463.4636 c -3.02,-1.388 -6.635,-1.357 -9.734,0.403 l -8.575,-11.383 c 1.07,-1.246 1.662,-2.809 1.724,-4.413 0.056,-1.424 -0.306,-2.879 -1.14,-4.17 -2.149,-3.325 -6.6,-4.278 -9.923,-2.124 -0.351,0.227 -0.666,0.488 -0.964,0.762 -0.092,0.086 -0.178,0.176 -0.265,0.265 -0.201,0.207 -0.387,0.424 -0.559,0.65 -0.077,0.101 -0.159,0.197 -0.23,0.302 -0.21,0.308 -0.397,0.629 -0.556,0.962 -0.041,0.087 -0.071,0.176 -0.109,0.263 -0.117,0.274 -0.216,0.553 -0.297,0.838 -0.031,0.104 -0.064,0.208 -0.089,0.313 -0.084,0.349 -0.142,0.703 -0.172,1.062 -0.008,0.097 -0.01,0.195 -0.014,0.293 -0.014,0.323 -0.01,0.65 0.02,0.974 0.007,0.069 0.007,0.137 0.014,0.203 0.045,0.378 0.126,0.751 0.233,1.121 0.025,0.088 0.055,0.176 0.083,0.263 0.125,0.379 0.27,0.755 0.463,1.117 l -6.903,5.194 -2.144,-2.846 -7.898,5.942 5.944,7.898 7.898,-5.944 -2.143,-2.846 6.978,-5.253 c 2.178,1.822 5.289,2.219 7.885,0.884 l 8.541,11.336 c -3.411,3.34 -4.274,8.677 -1.759,12.989 0.495,0.85 1.096,1.596 1.766,2.252 -4.647,3.171 -10.259,5.033 -16.308,5.048 -16.073,0.042 -29.136,-12.953 -29.179,-29.027 -0.041,-16.072 12.954,-29.136 29.027,-29.179 16.073,-0.041 29.137,12.955 29.18,29.027 0.005,2.35 -0.274,4.633 -0.795,6.824"
           style="fill:#ee0c5d;fill-opacity:1;fill-rule:nonzero;stroke:none"
           id="path322" /><path
           d="m 718.3666,458.5935 -0.589,10e-4 0.009,2.78 -1.053,0.003 10e-4,0.541 2.693,-0.008 -10e-4,-0.54 -1.053,0.003 z"
           style="fill:#231f20;fill-opacity:1;fill-rule:nonzero;stroke:none"
           id="path324" /><path
           d="m 721.9595,459.4001 h -0.018 l -1.036,1.558 -0.006,-2.371 -0.579,10e-4 0.009,3.321 0.621,-0.002 1.006,-1.572 1.015,1.567 0.621,-0.002 -0.008,-3.32 -0.579,10e-4 0.007,2.381 z"
           style="fill:#231f20;fill-opacity:1;fill-rule:nonzero;stroke:none"
           id="path326" /></g></g></g></svg>
