<?xml version="1.0" encoding="UTF-8"?> <svg xmlns="http://www.w3.org/2000/svg" data-name="Layer 1" viewBox="0 0 342 120"><path d="m109.25 94.08-.06-.36a13 13 0 0 0-.14-.6l-.14-.61c-.07-.26-.16-.51-.24-.76l-.2-.58c-.09-.25-.2-.48-.31-.72l-.25-.55c-.12-.24-.25-.46-.38-.69l-.29-.51c-.14-.23-.3-.44-.45-.66-.11-.15-.21-.31-.33-.46-.17-.22-.36-.43-.54-.64l-.34-.4c-.21-.22-.43-.43-.66-.64-.11-.1-.2-.21-.31-.3-.67-.6-1.4-1.13-2.18-1.59l-.38-.2c-.27-.15-.54-.3-.81-.43l-.49-.2-.77-.32-.54-.17-.76-.23c-.19-.05-.39-.08-.58-.12l-.76-.15-.62-.07a9.75 9.75 0 0 0-.76-.07l-.64-.01h-.77c-.22 0-.44.03-.65.05-.2.02-.39.02-.59.05l-.37.05c-.48.08-.96.18-1.42.3l-.46.14-.9.28-.52.22c-.26.11-.52.21-.77.33l-.52.28c-.23.13-.47.25-.69.39l-.3.2-8.72-8.19a19.1 19.1 0 0 0 2.25-15.56l6.53-4.35.36.28.45.32.5.33.48.28a8.87 8.87 0 0 0 1.6.74l.54.18a10.15 10.15 0 0 0 1.15.3l.31.07.61.1c.4.05.81.09 1.21.1h.42l.77-.01.48-.05c.23-.02.46-.04.68-.08l.5-.11a7.11 7.11 0 0 0 1.13-.3l.59-.19c.17-.06.33-.14.49-.21l.55-.24.48-.26.52-.29c.16-.09.3-.2.46-.3.16-.11.33-.22.48-.34l.43-.34.45-.38.4-.38c.14-.14.28-.27.41-.42l.36-.42.37-.45.32-.46.32-.49.28-.49c.09-.17.19-.34.27-.52l.24-.52a9 9 0 0 0 .22-.55l.19-.55.17-.58.14-.58.07-.3.1-.61A12.03 12.03 0 0 0 96.59 35l-.62-.07-.32-.01-.55-.02-.63.01c-.18 0-.36.02-.53.03l-.62.07-.52.08-.62.14-.49.12-.61.2-.46.16c-.21.08-.41.17-.61.27l-.42.19c-.22.11-.42.23-.63.35l-.34.2c-.3.19-.58.38-.86.59l-.12.09c-.28.21-.54.44-.8.67l-.28.28-.51.52-.3.36-.42.52-.28.4-.35.53-.25.44-.29.56-.21.48-.24.58-.17.51a47.64 47.64 0 0 0-.31 1.14l-.07.31-.1.61c-.05.41-.09.81-.1 1.21v.4l.01.79.05.47.08.7.1.49a14.65 14.65 0 0 0 .27 1.05l-5.78 3.86a19.18 19.18 0 0 0-24.27-5.44l-10.11-13-.21.16A17.09 17.09 0 0 0 29.85 8.12c-9.44 0-17.06 7.67-17.06 17.11A17.09 17.09 0 0 0 37.95 40.3l10.02 12.88a19.15 19.15 0 0 0-3.24 20.29L34.7 81.45l-.59-.44c-.22-.17-.44-.34-.67-.49-.22-.15-.46-.28-.69-.42-.24-.14-.47-.29-.72-.42-.24-.13-.49-.24-.73-.36l-.75-.35c-.25-.11-.51-.19-.77-.29-.26-.1-.52-.2-.79-.28l-.8-.22-.82-.2c-.27-.06-.55-.09-.83-.14-.28-.04-.56-.09-.85-.12-.28-.03-.57-.04-.86-.06-.22-.01-.44-.04-.66-.04h-.44c-.59 0-1.17.04-1.74.11-.2.02-.39.07-.59.09-.37.05-.74.1-1.1.18-.23.05-.45.12-.67.18-.32.08-.64.16-.95.26-.23.07-.46.17-.69.26-.29.11-.59.21-.87.33-.23.1-.45.22-.67.33-.27.13-.54.25-.81.4-.22.12-.43.26-.65.39-.25.15-.51.3-.75.47-.21.14-.41.3-.61.46-.23.17-.47.34-.69.53-.2.16-.38.34-.57.52-.21.19-.43.38-.63.59-.18.18-.35.38-.52.57-.19.21-.39.42-.57.64l-.47.62c-.17.23-.35.45-.5.69-.15.22-.27.44-.41.67-.15.24-.3.48-.43.73-.13.23-.23.47-.35.71-.12.26-.25.51-.36.77l-.28.75-.29.81-.21.78-.21.84-.13.81-.12.87c-.03.28-.04.56-.05.84-.01.23-.04.45-.04.67v.44a17.1 17.1 0 0 0 17.31 16.93h.44l.68-.07.82-.07.88-.14.78-.14.86-.23c.25-.07.5-.13.74-.21.29-.09.56-.21.84-.32.23-.09.47-.17.69-.27.28-.12.55-.27.82-.41.21-.11.43-.21.64-.33.28-.16.54-.33.8-.5.19-.12.39-.23.57-.36.28-.2.55-.41.82-.63.15-.12.32-.23.46-.36.38-.32.74-.66 1.08-1.01l.21-.22c.33-.35.66-.71.96-1.08l.37-.49c.2-.27.41-.53.59-.81.13-.19.24-.4.36-.6.16-.26.33-.53.47-.8.12-.22.21-.44.32-.67.13-.27.26-.53.38-.81l.27-.72c.1-.28.21-.55.29-.83.08-.25.13-.51.2-.76.07-.28.15-.57.21-.86l.13-.79c.05-.29.09-.58.12-.88.03-.27.04-.55.05-.82.01-.23.04-.45.04-.68v-.44c0-.59-.04-1.17-.11-1.74-.02-.19-.06-.37-.09-.56-.05-.38-.11-.76-.18-1.13l-.17-.66c-.08-.32-.16-.65-.26-.96-.07-.23-.17-.45-.25-.68-.11-.29-.21-.59-.33-.88-.1-.23-.22-.45-.33-.67l-.2-.41 9.53-7.58a19.15 19.15 0 0 0 25.24 1.98l8.74 8.21v.02c-.12.21-.24.42-.34.64l-.25.58-.28.67-.2.61c-.07.23-.15.46-.21.7l-.14.64-.14.72-.08.66c-.03.24-.06.49-.07.74l-.01.67v.75c0 .23.03.45.06.68.02.19.02.38.05.57l.05.37c.08.48.18.96.3 1.42l.14.46.28.9.22.52c.11.26.21.52.33.77l.28.52.38.69c.11.18.23.34.35.51l.43.62.4.48c.16.19.31.39.48.57l.44.44c.17.17.34.35.53.51l.49.4.57.46.52.35c.2.14.4.28.61.4.18.11.37.2.55.3.21.12.42.24.64.34l.58.25.67.28.61.2c.23.07.46.15.7.21l.63.14.73.14.65.08c.25.03.49.06.75.07l.66.01h.76c.22 0 .44-.03.67-.05.19-.02.39-.02.58-.05l.37-.05a14.27 14.27 0 0 0 11.89-16.31ZM50.16 65.87a12.24 12.24 0 1 1 24.48 0 12.24 12.24 0 0 1-24.48 0Z" style="fill:#256be8"></path><path d="M140.67 79V33.11h6.43v40.3h20.54V79h-26.98Zm31.04-39.46v-6.43h6.37v6.43h-6.37Zm.06 39.46V46.11h6.3V79h-6.3Zm21.99 0-12.29-32.89h6.7l7.99 22.23c.65 1.82 1.04 4.49 1.1 4.49h.13c.07 0 .52-2.67 1.17-4.49l7.99-22.23h6.63L201.03 79h-7.28Zm20.55-16.45c0-10.47 7.08-17.23 16.44-17.23s14.24 6.89 14.24 15.41c0 .84-.19 2.73-.19 2.73h-23.99c.32 7.21 5.46 10.85 11.31 10.85s9.75-3.83 9.75-3.83l2.6 4.62s-4.88 4.68-12.74 4.68c-10.34 0-17.42-7.48-17.42-17.23Zm6.7-3.83h17.55c-.19-5.66-3.71-8.39-7.93-8.39-4.81 0-8.71 2.99-9.62 8.39ZM251.94 79V33.11h6.37l20.41 29.83a79.78 79.78 0 0 1 3.84 6.63h.13s-.45-4.1-.45-6.63V33.11h6.43V79h-6.3l-20.48-29.77c-1.69-2.53-3.84-6.69-3.84-6.69h-.13s.46 4.1.46 6.69V79h-6.44Zm42.39 0 14.49-23.66-13.58-22.23h7.41l7.21 12.42c1.43 2.47 2.92 5.46 2.92 5.46h.13s1.3-2.92 2.8-5.46l7.21-12.42h7.41l-13.58 22.23L331.24 79h-7.28l-8.32-14.1c-1.49-2.6-2.93-5.26-2.93-5.26h-.13s-1.24 2.73-2.73 5.26L301.53 79h-7.21Z" style="fill:#0e1f38"></path></svg> 